<svg width="39" height="68" viewBox="0 0 39 68" fill="none" xmlns="http://www.w3.org/2000/svg">
<path d="M15.2912 67.4584C12.4128 67.4563 10.1608 67.3959 8.36678 67.2877H8.35641C7.86731 67.2565 7.41561 67.2232 6.99311 67.1857L6.83498 67.1711C6.45411 67.1357 6.09819 67.0983 5.76935 67.0567L5.64242 67.0421C4.90981 66.9464 4.29788 66.834 3.79213 66.7091H3.79C2.35184 66.349 1.71705 65.8703 1.29663 65.2938L1.14684 64.9088L1.09684 64.7028L1.01361 64.2636L0.961574 63.9285C0.928274 63.6829 0.894982 63.4103 0.865844 63.1126C0.341362 57.8678 0.385057 44.8557 0.385057 39.1988V11.7842V11.6676L0 11.7488V9.57178C0 8.40835 2.0876 8.04204 4.50188 7.12003C5.25322 6.8349 6.01496 6.57891 6.78295 6.35414V6.62471C6.84123 6.64761 6.89321 6.658 6.94108 6.658C7.03057 6.658 7.10135 6.62262 7.16587 6.56227V34.0726C7.16587 40.9699 7.0993 58.8169 8.07958 60.1697C9.0557 61.5163 11.1806 62.3259 22.074 62.3322C25.3937 62.3301 27.8975 62.2552 29.8039 62.1095C29.7769 62.4737 29.7478 62.8109 29.7165 63.1231L29.7748 63.1126C29.6582 64.2615 29.5188 65.0524 29.3418 65.2938C29.0442 65.7059 28.5947 66.0598 27.8621 66.3636L27.7518 66.4094C27.5416 66.4906 27.3044 66.5676 27.04 66.6404L26.8506 66.6925L26.8485 66.7091L26.3053 66.8236L26.1825 66.8548L26.1846 66.8486C25.6788 66.9464 25.0835 67.0338 24.3988 67.1087L24.1158 67.1378C23.8723 67.1628 23.6163 67.1857 23.3478 67.2086C23.1626 67.2232 22.9648 67.2378 22.7671 67.2523L22.2738 67.2877V67.2835C20.4694 67.3959 18.2008 67.4563 15.2912 67.4584Z" fill="black" fill-opacity="0.24"/>
<path d="M32.7612 1.99592C29.3104 0.678473 25.6682 0.0186906 22.0218 -4.1008e-05C18.3775 0.0186906 14.7353 0.678473 11.2845 1.99592C8.87021 2.91585 6.78271 3.28216 6.78271 4.44559V6.62468C7.36131 6.85778 7.3738 5.84628 7.98362 5.37175C8.75785 4.76818 9.93374 4.68909 11.2845 4.17501C14.7353 2.85756 18.3775 2.19778 22.0218 2.17905C25.6682 2.19778 29.3104 2.85756 32.7612 4.17501C34.1119 4.68909 35.2878 4.76818 36.0621 5.37175C36.6719 5.84628 36.6844 6.85778 37.263 6.62468V4.44559C37.263 3.28216 35.1755 2.91585 32.7612 1.99592Z" fill="#1C1D1E"/>
<path d="M36.9802 34.0726V6.49158C36.9802 5.35521 35.1424 4.68712 32.751 3.78801C29.3211 2.49553 25.6975 1.93979 22.074 1.92731C18.4484 1.93979 14.827 2.49553 11.395 3.78801C9.00568 4.68712 7.16587 5.35521 7.16587 6.49158V34.0726C7.16587 40.97 7.0993 58.817 8.07958 60.1698C9.0557 61.5164 11.1806 62.326 22.074 62.3322C32.9674 62.326 35.0904 61.5164 36.0686 60.1698C37.0489 58.817 36.9802 40.97 36.9802 34.0726Z" fill="#E5E31A"/>
<path d="M10.6708 4.06055C10.6416 3.94608 10.6146 3.83789 10.5875 3.73382C10.8581 3.62143 11.1057 3.50277 11.395 3.39455C14.8271 2.10208 18.4485 1.45482 22.0741 1.44233C25.6976 1.45482 29.3212 2.10208 32.7511 3.39455C33.0404 3.50277 33.288 3.62143 33.5586 3.73382C33.5336 3.83789 33.5045 3.94608 33.4774 4.06055C33.2422 3.97105 33.0008 3.8816 32.7511 3.78794C29.3212 2.49547 25.6976 1.93973 22.0741 1.92724C18.4485 1.93973 14.8271 2.49547 11.395 3.78794C11.1474 3.8816 10.9059 3.97105 10.6708 4.06055Z" fill="#1C1A16"/>
<path d="M29.6935 16.5295C28.9152 16.5295 25.9305 15.5492 22.0739 15.5492C18.2152 15.5492 15.2307 16.5295 14.4544 16.5295C14.4481 16.5295 14.4419 16.5295 14.4336 16.5295C13.8487 16.515 11.603 7.72779 10.6706 4.06058C10.9058 3.97108 11.1472 3.88163 11.3949 3.78797C14.8269 2.49549 18.4483 1.93976 22.0739 1.92727C25.6974 1.93976 29.321 2.49549 32.7509 3.78797C33.0007 3.88163 33.2421 3.97108 33.4772 4.06058C32.5428 7.72779 30.2971 16.515 29.7122 16.5295C29.706 16.5295 29.6998 16.5295 29.6935 16.5295Z" fill="#E1CA18"/>
<path d="M16.7835 16.8C14.6128 17.2371 12.2859 17.9031 10.8936 18.8917C10.8936 18.8917 13.2516 25.0689 14.1632 26.0117C14.1632 26.0117 19.0833 25.173 22.0741 25.173C25.0649 25.173 29.983 26.0117 29.983 26.0117C30.8967 25.0689 33.2548 18.8917 33.2548 18.8917C31.8624 17.9031 29.5355 17.2371 27.3647 16.8C23.8702 16.1007 20.278 16.1007 16.7835 16.8Z" fill="#2F3032"/>
<path d="M33.8208 19.4704L30.88 27.1003V35.9312L33.8875 34.8864L33.8208 19.4704Z" fill="#2F3032"/>
<path d="M30.88 45.9441L33.8208 53.6324L33.8875 35.9311L30.88 37.0446V45.9441Z" fill="#2F3032"/>
<path d="M10.3271 19.4704L13.2679 27.1003V35.9312L10.2606 34.8864L10.3271 19.4704Z" fill="#2F3032"/>
<path d="M13.2679 45.9441L10.3271 53.6324L10.2606 35.9311L13.2679 37.0446V45.9441Z" fill="#2F3032"/>
<path d="M28.3613 48.525C27.6287 48.6082 26.4278 48.706 25.2727 48.7934C23.1415 48.9516 21.006 48.9516 18.8748 48.7934C17.7176 48.706 16.5188 48.6082 15.7862 48.525L13.0494 54.3546C13.0494 54.3546 18.2713 55.1143 22.0738 55.1143C25.8763 55.1143 31.0983 54.3546 31.0983 54.3546L28.3613 48.525Z" fill="#2F3032"/>
<path d="M32.7508 3.3945C31.5895 2.95535 30.3989 2.62029 29.2001 2.32891C29.2293 3.04279 29.3354 3.8087 29.6268 4.24993C30.2532 5.19483 34.6427 6.53098 35.1109 4.48717C34.4345 4.10421 33.6562 3.73375 32.7508 3.3945Z" fill="#DBE0D3"/>
<path d="M11.3951 3.3945C10.4898 3.73375 9.71347 4.10421 9.03497 4.48717C9.50534 6.53098 13.8947 5.19483 14.5212 4.24993C14.8126 3.8087 14.9167 3.04279 14.9479 2.32891C13.7491 2.62029 12.5585 2.95535 11.3951 3.3945Z" fill="#DBE0D3"/>
<path d="M33.6854 3.78786L33.2546 5.58398C33.2546 5.58398 35.2006 6.27911 36.98 6.6579V6.49144C36.98 5.51324 35.5877 4.59956 33.6854 3.78786Z" fill="#F68C1F"/>
<path d="M10.8935 5.58398L10.4626 3.78786C8.56036 4.59956 7.16797 5.51324 7.16797 6.49144V6.6579C8.94746 6.27911 10.8935 5.58398 10.8935 5.58398Z" fill="#F68C1F"/>
<path d="M10.6436 58.8794C10.3398 58.459 8.52907 58.128 7.64661 57.9886C7.76316 59.1354 7.90262 59.9263 8.07953 60.1698C8.55822 60.8274 9.31782 61.3582 11.2388 61.7286C11.1577 60.9627 10.9517 59.304 10.6436 58.8794Z" fill="#F35E33"/>
<path d="M15.1828 59.8576C15.1828 59.8576 11.1659 58.9252 10.2606 58.6276C10.2606 58.6276 10.3251 60.4383 10.5728 61.583C11.6051 61.841 13.0599 62.0367 15.1474 62.1616C15.3347 60.3946 15.1828 59.8576 15.1828 59.8576Z" fill="#BE1E24"/>
<path d="M33.5605 58.8794C33.8644 58.459 35.6752 58.128 36.5555 57.9886C36.4411 59.1354 36.2996 59.9263 36.1247 60.1698C35.6461 60.8274 34.8843 61.3582 32.9653 61.7286C33.0465 60.9627 33.2504 59.304 33.5605 58.8794Z" fill="#F35E33"/>
<path d="M29.0192 59.8576C29.0192 59.8576 33.0381 58.9252 33.9435 58.6276C33.9435 58.6276 33.879 60.4383 33.6313 61.583C32.599 61.841 31.142 62.0367 29.0545 62.1616C28.8693 60.3946 29.0192 59.8576 29.0192 59.8576Z" fill="#BE1E24"/>
<path d="M33.8876 22.8275C35.0573 22.8025 38.9138 23.4123 38.9138 23.4123C38.9138 23.4123 39.0866 23.0335 38.7432 22.2759C38.4123 21.5496 34.2393 19.8804 33.8876 19.7409V22.8275Z" fill="#E5E31A"/>
<path d="M10.2605 22.8275C9.08874 22.8025 5.2321 23.4123 5.2321 23.4123C5.2321 23.4123 5.06145 23.0335 5.40486 22.2759C5.73578 21.5496 9.90876 19.8804 10.2605 19.7409V22.8275Z" fill="#E5E31A"/>
</svg>
