<svg width="273" height="269" viewBox="0 0 273 269" fill="none" xmlns="http://www.w3.org/2000/svg">
<path d="M0.775146 187.935V77.4265H272.137V187.935H0.775146Z" fill="#E4E5E2"/>
<path d="M191.919 268.362H80.9918V-3H191.919V268.362Z" fill="#E4E5E2"/>
<path d="M182.825 268.362H90.0865V-3H182.825V268.362Z" fill="#202F3E"/>
<path d="M0.775146 179.05V86.3116H272.137V179.05H0.775146Z" fill="#202F3E"/>
<path d="M259.218 131.442V133.919H268.421V131.442H259.218Z" fill="#E4E5E2"/>
<path d="M238.333 133.919H247.536V131.442H238.333V133.919Z" fill="#E4E5E2"/>
<path d="M217.449 133.919H226.652V131.442H217.449V133.919Z" fill="#E4E5E2"/>
<path d="M47.9283 133.919H57.1318V131.442H47.9283V133.919Z" fill="#E4E5E2"/>
<path d="M27.0443 133.919H36.2478V131.442H27.0443V133.919Z" fill="#E4E5E2"/>
<path d="M6.15988 133.919H15.3636V131.442H6.15988V133.919Z" fill="#E4E5E2"/>
<path d="M135.217 0.715567V9.9187H137.694V0.715567H135.217Z" fill="#E4E5E2"/>
<path d="M135.217 30.8041H137.694V21.6009H135.217V30.8041Z" fill="#E4E5E2"/>
<path d="M135.217 51.6873H137.694V42.4842H135.217V51.6873Z" fill="#E4E5E2"/>
<path d="M135.217 221.907H137.694V212.704H135.217V221.907Z" fill="#E4E5E2"/>
<path d="M135.217 242.792H137.694V233.589H135.217V242.792Z" fill="#E4E5E2"/>
<path d="M135.217 263.675H137.694V254.472H135.217V263.675Z" fill="#E4E5E2"/>
<path d="M182.825 98.8056V104.011H206.922V98.8056H182.825Z" fill="#E4E5E2"/>
<path d="M182.825 116.599H206.922V111.394H182.825V116.599Z" fill="#E4E5E2"/>
<path d="M182.825 129.187H206.922V123.982H182.825V129.187Z" fill="#E4E5E2"/>
<path d="M182.825 141.775H206.922V136.57H182.825V141.775Z" fill="#E4E5E2"/>
<path d="M182.825 154.363H206.922V149.158H182.825V154.363Z" fill="#E4E5E2"/>
<path d="M182.825 166.951H206.922V161.746H182.825V166.951Z" fill="#E4E5E2"/>
<path d="M65.9899 98.8056V104.011H90.0865V98.8056H65.9899Z" fill="#E4E5E2"/>
<path d="M65.9899 116.599H90.0865V111.394H65.9899V116.599Z" fill="#E4E5E2"/>
<path d="M65.9899 129.187H90.0865V123.982H65.9899V129.187Z" fill="#E4E5E2"/>
<path d="M65.9899 141.775H90.0865V136.57H65.9899V141.775Z" fill="#E4E5E2"/>
<path d="M65.9899 154.363H90.0865V149.158H65.9899V154.363Z" fill="#E4E5E2"/>
<path d="M65.9899 166.951H90.0865V161.746H65.9899V166.951Z" fill="#E4E5E2"/>
<path d="M102.382 86.3116H107.589V62.2149H102.382V86.3116Z" fill="#E4E5E2"/>
<path d="M120.177 86.3116V62.2149H114.97V86.3116H120.177Z" fill="#E4E5E2"/>
<path d="M132.765 86.3116V62.2149H127.558V86.3116H132.765Z" fill="#E4E5E2"/>
<path d="M145.353 86.3116V62.2149H140.146V86.3116H145.353Z" fill="#E4E5E2"/>
<path d="M157.941 86.3116V62.2149H152.734V86.3116H157.941Z" fill="#E4E5E2"/>
<path d="M170.53 86.3116V62.2149H165.325V86.3116H170.53Z" fill="#E4E5E2"/>
<path d="M102.382 203.147H107.589V179.05H102.382V203.147Z" fill="#E4E5E2"/>
<path d="M120.177 203.147V179.05H114.97V203.147H120.177Z" fill="#E4E5E2"/>
<path d="M132.765 203.147V179.05H127.558V203.147H132.765Z" fill="#E4E5E2"/>
<path d="M145.353 203.147V179.05H140.146V203.147H145.353Z" fill="#E4E5E2"/>
<path d="M157.941 203.147V179.05H152.734V203.147H157.941Z" fill="#E4E5E2"/>
<path d="M170.53 203.147V179.05H165.325V203.147H170.53Z" fill="#E4E5E2"/>
</svg>
