<svg width="144" height="93" viewBox="0 0 144 93" fill="none" xmlns="http://www.w3.org/2000/svg">
<path d="M0 92.9823V0.467186H143.096V92.9823H0Z" fill="#202F3E"/>
<path d="M0 92.9823V0.467186H143.096V92.9823H0Z" fill="#202F3E"/>
<path d="M94.8717 27.3212H102.118V25.3693H94.8717V27.3212Z" fill="#E4E5E2"/>
<path d="M78.429 27.3212H85.6751V25.3693H78.429V27.3212Z" fill="#E4E5E2"/>
<path d="M45.5423 27.3212H52.7885V25.3693H45.5423V27.3212Z" fill="#E4E5E2"/>
<path d="M29.0956 27.3212H36.3455V25.3693H29.0956V27.3212Z" fill="#E4E5E2"/>
<path d="M12.6515 27.3212H19.8975V25.3693H12.6515V27.3212Z" fill="#E4E5E2"/>
<path d="M94.8717 49.2207H102.118V47.2688H94.8717V49.2207Z" fill="#E4E5E2"/>
<path d="M78.429 49.2207H85.6751V47.2688H78.429V49.2207Z" fill="#E4E5E2"/>
<path d="M61.9851 49.2207H69.2313V47.2688H61.9851V49.2207Z" fill="#E4E5E2"/>
<path d="M45.5423 49.2207H52.7885V47.2688H45.5423V49.2207Z" fill="#E4E5E2"/>
<path d="M29.0956 49.2207H36.3455V47.2688H29.0956V49.2207Z" fill="#E4E5E2"/>
<path d="M12.6515 49.2207H19.8975V47.2688H12.6515V49.2207Z" fill="#E4E5E2"/>
<path d="M94.8717 71.1218H102.118V69.1714H94.8717V71.1218Z" fill="#E4E5E2"/>
<path d="M127.762 25.3693V27.3212H135.008V25.3693H127.762Z" fill="#E4E5E2"/>
<path d="M111.315 25.3693V27.3212H118.565V25.3693H111.315Z" fill="#E4E5E2"/>
<path d="M127.762 49.2207H135.008V47.2688H127.762V49.2207Z" fill="#E4E5E2"/>
<path d="M111.315 47.2688V49.2207H118.565V47.2688H111.315Z" fill="#E4E5E2"/>
<path d="M127.762 71.1218H135.008V69.1714H127.762V71.1218Z" fill="#E4E5E2"/>
<path d="M111.315 69.1714V71.1218H118.565V69.1714H111.315Z" fill="#E4E5E2"/>
<path d="M78.429 71.1218H85.6751V69.1714H78.429V71.1218Z" fill="#E4E5E2"/>
<path d="M61.9851 71.1218H69.2313V69.1714H61.9851V71.1218Z" fill="#E4E5E2"/>
<path d="M45.5423 71.1218H52.7885V69.1714H45.5423V71.1218Z" fill="#E4E5E2"/>
<path d="M29.0956 71.1218H36.3455V69.1714H29.0956V71.1218Z" fill="#E4E5E2"/>
<path d="M12.6515 71.1218H19.8975V69.1714H12.6515V71.1218Z" fill="#E4E5E2"/>
<path d="M56.0095 38.722H63.5462V6.2866H56.0095V38.722Z" fill="#E4E5E2"/>
<path d="M79.8821 5.84738H65.6081V10.679H79.3159C83.0499 10.679 86.0761 13.7052 86.0761 17.4395V17.5726C86.0761 21.3074 83.0499 24.3366 79.3159 24.3366H65.6081V29.1652H79.8821C86.2559 29.1652 91.4245 23.9958 91.4245 17.622V17.389C91.4245 11.0149 86.2559 5.84738 79.8821 5.84738Z" fill="#E4E5E2"/>
</svg>
