<svg width="113" height="404" viewBox="0 0 113 404" fill="none" xmlns="http://www.w3.org/2000/svg">
<path d="M0.869324 0.21402V403.204H112.201V0.21402H0.869324Z" fill="#E4E5E2"/>
<path d="M10.2776 0.21402V403.204H102.793V0.21402H10.2776Z" fill="#202F3E"/>
<path d="M55.7512 14.1213H58.2282V4.91817H55.7512V14.1213Z" fill="#E4E5E2"/>
<path d="M55.7512 35.0068H58.2282V25.8037H55.7512V35.0068Z" fill="#E4E5E2"/>
<path d="M55.7512 55.8901H58.2282V46.6869H55.7512V55.8901Z" fill="#E4E5E2"/>
<path d="M55.7512 73.7073H58.2282V64.5042H55.7512V73.7073Z" fill="#E4E5E2"/>
<path d="M55.7512 94.5928H58.2282V85.3896H55.7512V94.5928Z" fill="#E4E5E2"/>
<path d="M55.7512 115.476H58.2282V106.273H55.7512V115.476Z" fill="#E4E5E2"/>
<path d="M55.7512 133.293H58.2282V124.09H55.7512V133.293Z" fill="#E4E5E2"/>
<path d="M55.7512 154.179H58.2282V144.976H55.7512V154.179Z" fill="#E4E5E2"/>
<path d="M55.7512 175.062H58.2282V165.859H55.7512V175.062Z" fill="#E4E5E2"/>
<path d="M55.7512 192.879H58.2282V183.676H55.7512V192.879Z" fill="#E4E5E2"/>
<path d="M55.7512 213.765H58.2282V204.562H55.7512V213.765Z" fill="#E4E5E2"/>
<path d="M55.7512 234.648H58.2282V225.445H55.7512V234.648Z" fill="#E4E5E2"/>
<path d="M55.7512 252.465H58.2282V243.262H55.7512V252.465Z" fill="#E4E5E2"/>
<path d="M55.7512 273.351H58.2282V264.147H55.7512V273.351Z" fill="#E4E5E2"/>
<path d="M55.7512 294.234H58.2282V285.031H55.7512V294.234Z" fill="#E4E5E2"/>
<path d="M55.7512 312.051H58.2282V302.848H55.7512V312.051Z" fill="#E4E5E2"/>
<path d="M55.7512 332.937H58.2282V323.733H55.7512V332.937Z" fill="#E4E5E2"/>
<path d="M55.7512 353.82H58.2282V344.617H55.7512V353.82Z" fill="#E4E5E2"/>
<path d="M55.7512 371.637H58.2282V362.434H55.7512V371.637Z" fill="#E4E5E2"/>
<path d="M55.7512 392.523H58.2282V383.319H55.7512V392.523Z" fill="#E4E5E2"/>
</svg>
